<svg width="1200" height="150" viewBox="0 0 1200 150" xmlns="http://www.w3.org/2000/svg">
  <defs>
    <linearGradient id="rowbg" x1="0" y1="0" x2="1" y2="0">
      <stop offset="0%" stop-color="#0B1428"/>
      <stop offset="100%" stop-color="#060B18"/>
    </linearGradient>
  </defs>
  <rect width="1200" height="150" rx="14" fill="url(#rowbg)" stroke="#111C34"/>

  <!-- category tag -->
  <rect x="18" y="47" width="150" height="38" rx="10" fill="#060B18" stroke="#38BDF8" stroke-width="1.5"/>
  <text x="34" y="71" font-family="ui-monospace, 'JetBrains Mono', 'SFMono-Regular', Consolas, monospace" font-size="14" font-weight="700" fill="#38BDF8">⇄ WEB / BACKEND</text>
  <line x1="168" y1="66" x2="170" y2="66" stroke="#38BDF8" stroke-width="2" opacity="0.55"/>

  <line x1="170" y1="66" x2="1160" y2="66" stroke="#38BDF8" stroke-width="2" opacity="0.55"/>
  <line x1="190" y1="66" x2="190" y2="44" stroke="#16233F" stroke-width="2"/><line x1="348" y1="66" x2="348" y2="44" stroke="#16233F" stroke-width="2"/><line x1="507" y1="66" x2="507" y2="44" stroke="#16233F" stroke-width="2"/><line x1="665" y1="66" x2="665" y2="44" stroke="#16233F" stroke-width="2"/><line x1="823" y1="66" x2="823" y2="44" stroke="#16233F" stroke-width="2"/><line x1="982" y1="66" x2="982" y2="44" stroke="#16233F" stroke-width="2"/><line x1="1140" y1="66" x2="1140" y2="44" stroke="#16233F" stroke-width="2"/>
  <g>
          <rect x="174" y="28" width="32" height="20" rx="5" fill="#0B1428" stroke="#38BDF8" stroke-width="1.5"/>
          <circle cx="190" cy="66" r="5" fill="#060B18" stroke="#38BDF8" stroke-width="2"/>
        </g><g>
          <rect x="332" y="28" width="32" height="20" rx="5" fill="#0B1428" stroke="#38BDF8" stroke-width="1.5"/>
          <circle cx="348" cy="66" r="5" fill="#060B18" stroke="#38BDF8" stroke-width="2"/>
        </g><g>
          <rect x="491" y="28" width="32" height="20" rx="5" fill="#0B1428" stroke="#38BDF8" stroke-width="1.5"/>
          <circle cx="507" cy="66" r="5" fill="#060B18" stroke="#38BDF8" stroke-width="2"/>
        </g><g>
          <rect x="649" y="28" width="32" height="20" rx="5" fill="#0B1428" stroke="#38BDF8" stroke-width="1.5"/>
          <circle cx="665" cy="66" r="5" fill="#060B18" stroke="#38BDF8" stroke-width="2"/>
        </g><g>
          <rect x="807" y="28" width="32" height="20" rx="5" fill="#0B1428" stroke="#38BDF8" stroke-width="1.5"/>
          <circle cx="823" cy="66" r="5" fill="#060B18" stroke="#38BDF8" stroke-width="2"/>
        </g><g>
          <rect x="966" y="28" width="32" height="20" rx="5" fill="#0B1428" stroke="#38BDF8" stroke-width="1.5"/>
          <circle cx="982" cy="66" r="5" fill="#060B18" stroke="#38BDF8" stroke-width="2"/>
        </g><g>
          <rect x="1124" y="28" width="32" height="20" rx="5" fill="#0B1428" stroke="#38BDF8" stroke-width="1.5"/>
          <circle cx="1140" cy="66" r="5" fill="#060B18" stroke="#38BDF8" stroke-width="2"/>
        </g>
  <text x="190" y="100" text-anchor="middle" font-family="ui-monospace, 'JetBrains Mono', 'SFMono-Regular', Consolas, monospace" font-size="13.5" fill="#E7ECF7">React.js</text><text x="348" y="100" text-anchor="middle" font-family="ui-monospace, 'JetBrains Mono', 'SFMono-Regular', Consolas, monospace" font-size="13.5" fill="#E7ECF7">HTML5</text><text x="507" y="100" text-anchor="middle" font-family="ui-monospace, 'JetBrains Mono', 'SFMono-Regular', Consolas, monospace" font-size="13.5" fill="#E7ECF7">CSS3</text><text x="665" y="100" text-anchor="middle" font-family="ui-monospace, 'JetBrains Mono', 'SFMono-Regular', Consolas, monospace" font-size="13.5" fill="#E7ECF7">FastAPI</text><text x="823" y="100" text-anchor="middle" font-family="ui-monospace, 'JetBrains Mono', 'SFMono-Regular', Consolas, monospace" font-size="13.5" fill="#E7ECF7">REST APIs</text><text x="982" y="100" text-anchor="middle" font-family="ui-monospace, 'JetBrains Mono', 'SFMono-Regular', Consolas, monospace" font-size="13.5" fill="#E7ECF7">Express.js</text><text x="1140" y="100" text-anchor="middle" font-family="ui-monospace, 'JetBrains Mono', 'SFMono-Regular', Consolas, monospace" font-size="13.5" fill="#E7ECF7">Node.js</text>
</svg>