<svg width="1200" height="140" viewBox="0 0 1200 140" xmlns="http://www.w3.org/2000/svg">
  <defs>
    <linearGradient id="fgrad" x1="0" y1="0" x2="1" y2="0">
      <stop offset="0%" stop-color="#64FFDA"/>
      <stop offset="50%" stop-color="#38BDF8"/>
      <stop offset="100%" stop-color="#C792EA"/>
    </linearGradient>
  </defs>
  <rect width="1200" height="140" fill="#060B18"/>
  <path d="M0,70.0 L10,74.0 L20,77.7 L30,81.1 L40,84.0 L50,86.1 L60,87.5 L70,88.0 L80,87.6 L90,86.4 L100,84.3 L110,81.6 L120,78.2 L130,74.5 L140,70.5 L150,66.6 L160,62.8 L170,59.3 L180,56.4 L190,54.1 L200,52.6 L210,52.0 L220,52.3 L230,53.4 L240,55.4 L250,58.0 L260,61.3 L270,65.0 L280,68.9 L290,72.9 L300,76.7 L310,80.2 L320,83.3 L330,85.6 L340,87.2 L350,87.9 L360,87.8 L370,86.8 L380,85.0 L390,82.4 L400,79.2 L410,75.6 L420,71.6 L430,67.7 L440,63.8 L450,60.2 L460,57.1 L470,54.7 L480,53.0 L490,52.1 L500,52.1 L510,53.0 L520,54.7 L530,57.2 L540,60.3 L550,63.9 L560,67.8 L570,71.8 L580,75.7 L590,79.3 L600,82.5 L610,85.0 L620,86.9 L630,87.8 L640,87.9 L650,87.2 L660,85.5 L670,83.1 L680,80.1 L690,76.6 L700,72.7 L710,68.7 L720,64.8 L730,61.1 L740,57.9 L750,55.3 L760,53.4 L770,52.3 L780,52.0 L790,52.7 L800,54.2 L810,56.5 L820,59.4 L830,62.9 L840,66.7 L850,70.7 L860,74.7 L870,78.4 L880,81.7 L890,84.4 L900,86.4 L910,87.6 L920,88.0 L930,87.5 L940,86.1 L950,83.9 L960,81.0 L970,77.6 L980,73.8 L990,69.8 L1000,65.9 L1010,62.1 L1020,58.7 L1030,55.9 L1040,53.8 L1050,52.5 L1060,52.0 L1070,52.4 L1080,53.7 L1090,55.8 L1100,58.6 L1110,61.9 L1120,65.7 L1130,69.6 L1140,73.6 L1150,77.4 L1160,80.8 L1170,83.7 L1180,86.0 L1190,87.4 L1200,88.0" stroke="url(#fgrad)" stroke-width="2.5" fill="none" opacity="0.85"/>
  <text x="600.0" y="112" text-anchor="middle" font-family="ui-monospace, 'JetBrains Mono', 'SFMono-Regular', Consolas, monospace" font-size="14" fill="#7D8AA8">// end of transmission — thanks for reading, let's build something.</text>
</svg>