<svg width="16" height="16" viewBox="0 0 16 16" fill="none" xmlns="http://www.w3.org/2000/svg">
  <path d="M8 1.5C4.41 1.5 1.5 4.46 1.5 8.12C1.5 11.05 3.36 13.53 5.94 14.38C6.26 14.44 6.38 14.24 6.38 14.07V12.97C4.57 13.38 4.19 12.18 4.19 12.18C3.89 11.4 3.45 11.2 3.45 11.2C2.84 10.77 3.5 10.78 3.5 10.78C4.17 10.83 4.52 11.49 4.52 11.49C5.12 12.54 6.1 12.24 6.47 12.06C6.53 11.61 6.7 11.31 6.89 11.14C5.44 10.97 3.92 10.39 3.92 7.8C3.92 7.06 4.17 6.45 4.58 5.96C4.51 5.79 4.3 5.11 4.64 4.19C4.64 4.19 5.19 4.01 6.37 4.83C6.89 4.68 7.45 4.61 8 4.61C8.55 4.61 9.11 4.68 9.63 4.83C10.81 4.01 11.36 4.19 11.36 4.19C11.7 5.11 11.49 5.79 11.42 5.96C11.83 6.45 12.08 7.06 12.08 7.8C12.08 10.4 10.56 10.97 9.1 11.13C9.34 11.35 9.56 11.79 9.56 12.46V14.07C9.56 14.25 9.68 14.45 10.01 14.38C12.6 13.53 14.5 11.04 14.5 8.12C14.5 4.46 11.59 1.5 8 1.5Z" fill="#475569"/>
</svg>
