<svg width="1280" height="252" viewBox="0 0 1280 252" fill="none" xmlns="http://www.w3.org/2000/svg">
  <rect x="16" y="16" width="1248" height="220" rx="28" fill="#FBFCFE"/>
  <rect x="16.75" y="16.75" width="1246.5" height="218.5" rx="27.25" stroke="#D8E1EB" stroke-width="1.5"/>
  <rect x="52" y="54" width="68" height="4" rx="2" fill="#2563EB"/>
  <text x="52" y="84" fill="#64748B" font-family="'Inter', 'Segoe UI', Arial, sans-serif" font-size="13" font-weight="600" letter-spacing="1.8">FEATURED PROJECT</text>
  <text x="52" y="132" fill="#0F172A" font-family="'Inter', 'Segoe UI', Arial, sans-serif" font-size="34" font-weight="600">TypeRush</text>
  <text x="52" y="168" fill="#475569" font-family="'Inter', 'Segoe UI', Arial, sans-serif" font-size="20">A focused typing experience built around speed, feedback, and responsive interaction design.</text>

  <g font-family="'Inter', 'Segoe UI', Arial, sans-serif" font-size="15" font-weight="500">
    <rect x="52" y="190" width="120" height="32" rx="12" fill="#FFFFFF" stroke="#D8E1EB"/>
    <text x="75" y="210" fill="#0F172A">JavaScript</text>
    <rect x="184" y="190" width="82" height="32" rx="12" fill="#FFFFFF" stroke="#D8E1EB"/>
    <text x="207" y="210" fill="#0F172A">React</text>
    <rect x="278" y="190" width="100" height="32" rx="12" fill="#FFFFFF" stroke="#D8E1EB"/>
    <text x="301" y="210" fill="#0F172A">Node.js</text>
    <rect x="390" y="190" width="74" height="32" rx="12" fill="#FFFFFF" stroke="#D8E1EB"/>
    <text x="413" y="210" fill="#0F172A">Git</text>
  </g>

  <rect x="920" y="56" width="276" height="140" rx="24" fill="#F4F8FF" stroke="#D8E6F8"/>
  <rect x="948" y="84" width="188" height="16" rx="8" fill="#E0EAFE"/>
  <rect x="948" y="116" width="150" height="14" rx="7" fill="#E7EEF7"/>
  <rect x="948" y="144" width="118" height="14" rx="7" fill="#E7EEF7"/>
  <rect x="1080" y="142" width="12" height="20" rx="6" fill="#2563EB"/>
  <rect x="948" y="174" width="104" height="10" rx="5" fill="#D8E6F8"/>
  <rect x="1060" y="174" width="74" height="10" rx="5" fill="#D8E6F8"/>
  <circle cx="1168" cy="80" r="10" fill="#2563EB" fill-opacity="0.12"/>
</svg>
